<?xml version="1.0" encoding="UTF-8"?> <!-- Generator: Adobe Illustrator 24.0.1, SVG Export Plug-In . SVG Version: 6.00 Build 0) --> <svg xmlns="http://www.w3.org/2000/svg" xmlns:xlink="http://www.w3.org/1999/xlink" version="1.1" id="Layer_1" x="0px" y="0px" viewBox="0 0 1500 705.7" style="enable-background:new 0 0 1500 705.7;" xml:space="preserve"> <style type="text/css"> .st0{fill:#FF3D00;} </style> <g> <g> <g> <path class="st0" d="M0,454.6L0,454.6l0,170.6h100v-33.1H36.3V490.9C36.3,470.9,20.1,454.6,0,454.6z"></path> <rect x="119.2" y="508.9" class="st0" width="34.7" height="116.2"></rect> <path class="st0" d="M405.3,574.9c0,11.2-5.3,21.9-19.4,21.9c-13.5,0-18-10.3-18-21.5v-66.4h-34.7v76.3 c0,24.7,15.1,42.9,40.6,42.9c12.3,0,25.1-5,33.3-16.9v13.9h32.9V508.9h-34.7V574.9z"></path> <rect x="470.4" y="508.9" class="st0" width="34.7" height="116.2"></rect> <path class="st0" d="M890.2,553l-9.4-2.1c-10-2.3-14.4-4.3-14.4-10.3c0-5.7,5.9-8.2,12.8-8.2c6.6,0,13.5,2.1,13.5,11.9h35.4 c-2.1-26.3-21.9-38.4-48.4-38.4c-26.5,0-48.4,13.2-48.4,37.2c0,23.7,18,31.7,38.6,35.9l11.2,2.3c8.4,1.8,13.2,4.3,13.2,10.7 c0,6.6-5.7,9.8-14.6,9.8c-9.1,0-16.2-3.9-16.2-14.6h-36.5c1.6,28.8,23.3,40.9,53.7,40.9c28.1,0,49.6-13,49.6-39 C930.1,565.8,913,558,890.2,553z"></path> <path class="st0" d="M1068.5,565.3c0-33.3-23.1-59.4-60.7-59.4c-35.9,0-62.1,27.4-62.1,61.2c0,33.8,24.7,61,61.6,61 c30.8,0,51.8-16,58.9-40.6h-33.6c-5,8.7-13,12.8-24.9,12.8c-15.8,0-26-9.8-29-24.4h89.7V565.3z M980.4,553 c4.1-11.4,13.7-19,27.4-19c13.7,0,23.5,7.1,27.2,19H980.4z"></path> <path class="st0" d="M772.1,515.5c-9.4-5.7-20.4-9.1-32.2-9.1c-34.1,0-61.7,27.6-61.7,61.7c0,34.1,27.6,61.7,61.7,61.7 c11.8,0,22.8-3.3,32.2-9.1v4.5h33.1V508.9h-33.1V515.5z M739.9,598.9c-17,0-30.8-13.8-30.8-30.8s13.8-30.8,30.8-30.8 s30.8,13.8,30.8,30.8S756.9,598.9,739.9,598.9z"></path> <path class="st0" d="M604.8,506.5c-13.3-0.8-25.8,2.5-36.2,8.9v-43.9c0-18.3-14.8-33.1-33.1-33.1l0,0v186.7h33.1v-4.5 c9.4,5.7,20.4,9.1,32.2,9.1c35.5,0,64-30,61.5-66.1C660.2,533.1,635.4,508.5,604.8,506.5z M600.8,598.9 c-17,0-30.8-13.8-30.8-30.8s13.8-30.8,30.8-30.8c17,0,30.8,13.8,30.8,30.8S617.8,598.9,600.8,598.9z"></path> <path class="st0" d="M136.6,454.6c-11.3,0-20.4,9.1-20.4,20.4s9.1,20.4,20.4,20.4c11.3,0,20.4-9.1,20.4-20.4 S147.8,454.6,136.6,454.6z"></path> <path class="st0" d="M487.8,454.6c-11.3,0-20.4,9.1-20.4,20.4s9.1,20.4,20.4,20.4s20.4-9.1,20.4-20.4S499.1,454.6,487.8,454.6z"></path> <path class="st0" d="M271.3,508.9v6.9c-10.4-6.5-23-10.1-36.4-9.3c-30.7,1.8-55.8,26.5-57.9,57.2c-2.5,36,26,66,61.5,66 c11.1,0,21.6-3,30.6-8.1V671c0,19.2,15.5,34.7,34.7,34.7h0v-40.6V553.7v-44.7H271.3z M239.8,598.9c-17,0-30.8-13.8-30.8-30.8 c0-17,13.8-30.8,30.8-30.8s30.8,13.8,30.8,30.8C270.6,585.1,256.8,598.9,239.8,598.9z"></path> </g> <path class="st0" d="M1084.7,606c0-12.8,9.1-22.8,22.8-22.8s23.1,10,23.1,22.8c0,11.9-9.4,22.2-23.1,22.2S1084.7,617.9,1084.7,606 z"></path> <path class="st0" d="M1272.5,566.9c0,33.8-25.4,61.2-63,61.2c-38.1,0-63-27.4-63-61.2c0-33.6,24.9-61,63-61 C1247.1,505.9,1272.5,533.3,1272.5,566.9z M1180.9,567.2c0,16.2,11.2,29,28.6,29c17.4,0,28.8-12.8,28.8-29 c0-16.2-11.4-29.2-28.8-29.2C1192.1,537.9,1180.9,550.9,1180.9,567.2z"></path> <path class="st0" d="M1330.1,625.2h-34.7V508.9h33.1v19.9c8-15.8,20.6-22.2,33.1-22.2c2.7,0,5.3,0.2,7.1,0.7V540 c-2.3-0.5-5.5-1.1-9.1-1.1c-21.7,0-29.5,16.4-29.5,33.8V625.2z"></path> <path class="st0" d="M1467.4,508.9v6.9c-10.4-6.5-23-10.1-36.4-9.3c-30.7,1.8-55.8,26.5-57.9,57.2c-2.5,36,26,66,61.5,66 c11.1,0,21.6-3,30.6-8.1c0,15,2.9,39-25.8,39c-14.8,0-24.4-6.9-25.4-17.6h-34c1.1,26.3,25.4,46.4,59.6,46.4 c40.1,0,59.8-24,60.3-55.2h0c0-11.2,0-12,0-80.6v-44.7H1467.4z M1435.8,598.8c-17,0-30.8-13.8-30.8-30.8c0-17,13.8-30.8,30.8-30.8 c17,0,30.8,13.8,30.8,30.8C1466.6,585,1452.8,598.8,1435.8,598.8z"></path> </g> <g> <ellipse class="st0" cx="750" cy="51.7" rx="128.9" ry="51.7"></ellipse> <path class="st0" d="M753,278.7c-41.2,9.9-83.6,20.1-110.7,38c-13.5-8.4-21.1-18.1-21.1-27.3c0-40.9,68.3-56.4,134.4-71.3 c47.6-10.8,96.2-21.8,123.4-44v36C878.9,248.6,814.9,263.9,753,278.7z"></path> <path class="st0" d="M750.7,196.7c-50.1,11.3-101.4,23-129.5,47.2v-8c0-71.2,78.1-89.5,153.7-107.2 c54.9-12.8,81.6-19.6,104.1-37.6V131C878.9,167.7,813.7,182.4,750.7,196.7z"></path> <path class="st0" d="M878.9,254.9c-26.8,22.6-74.3,34-120.8,45.2c-33.3,8-67.5,16.2-91.6,28.1c21.9,7.8,50.5,13,83.5,13 c75.1,0,128.9-27,128.9-51.7V254.9z"></path> </g> </g> </svg> 